<?xml version="1.0" encoding="utf-8"?>
<!-- Generator: Adobe Illustrator 27.7.0, SVG Export Plug-In . SVG Version: 6.00 Build 0)  -->
<svg version="1.1" id="Layer_1" xmlns="http://www.w3.org/2000/svg" xmlns:xlink="http://www.w3.org/1999/xlink" x="0px" y="0px"
	 viewBox="0 0 2000 2000" style="enable-background:new 0 0 2000 2000;" xml:space="preserve">
<style type="text/css">
	.st0{fill:none;}
	.st1{fill:#EE2F2C;}
</style>
<g>
	<path class="st0" d="M206.24,998.11c21.74-17.65,138.17-104.39,276-104.39c75.58,0,175.25,56.13,175.25,109.11
		c0,110.87-250,180.62-250,50.57c0-208.41,333.73-313.26,387.08-313.26"/>
	<path class="st0" d="M548.37,1169.56c-68.64,11.12-250.64,13.34-202.02-183.68"/>
	<g>
		<path d="M795.2,732.22v10.4c-0.39,1.55-1.52,2.55-3.39,3.01c-51.57,12.54-101.14,29.27-148.7,50.21
			c-52.16,22.96-102.9,53.09-144.65,90.94c-0.2,0.19-0.21,0.51-0.02,0.71c0.06,0.06,0.13,0.11,0.22,0.13
			c1.6,0.48,3.19,0.81,4.76,0.99c33.01,3.83,63.78,13.88,92.31,30.14c38.95,22.2,81.39,58.4,67.5,109.35
			c-4.78,17.56-16.63,34.05-30.02,46.63c-33.45,31.42-79.61,50.88-124.32,56.33c-33.33,4.07-73.77-1.17-94.97-30.54
			c-7.3-10.12-11.8-21.7-13.49-34.71c-1.29-9.98-1.42-19.47-0.37-28.47c5.45-46.71,26.76-90.53,57.18-127.11
			c2.5-3,4.92-5.95,7.28-8.86c0.34-0.41,0.24-0.66-0.29-0.75c-1.87-0.3-3.73-0.4-5.56-0.3c-26.04,1.52-51.52,6.02-76.45,13.52
			c-34.9,10.5-68.59,24.78-101.04,42.83c-24.53,13.64-47.66,28.33-69.39,44.09c-0.16,0.12-0.32,0.26-0.48,0.42
			c-0.27,0.28-0.45,0.23-0.56-0.15l-0.57-2.05V985.2c33.22-23.93,69.49-44.82,108.8-62.69c36.69-16.67,74.43-27.73,113.22-33.17
			c12.82-1.8,28.1-2.69,45.83-2.66c0.43,0,0.81-0.15,1.12-0.46c40.04-39.33,88.57-70.2,139.56-94.36
			c54.21-25.68,112.56-46.01,175.07-61.01c0.34-0.08,0.63,0.01,0.87,0.27C794.86,731.4,795.04,731.76,795.2,732.22z M509.49,1116.99
			c37.87-4.87,78.2-21.68,107.56-46.32c22.81-19.15,42.26-47.03,32.59-78.25c-4.44-14.37-15.54-28.54-27-38.1
			c-39.22-32.66-84.82-50.64-136.8-53.94c-0.91-0.06-1.79,0.29-2.42,0.95c-35.09,37.15-60.87,79.97-68.76,130.52
			c-1.49,9.46-1.84,19.85-0.95,29.19c0.25,2.66,0.67,5.37,1.25,8.15c7.31,34.95,38.59,48.68,71.24,49.03
			C494.61,1118.31,502.37,1117.9,509.49,1116.99z"/>
		<path class="st1" d="M331.85,1005.16c0.26-1.44-0.24-1.79-1.51-1.06l-14.75,8.51c-0.92,0.53-1.24,0.28-0.95-0.74l4.82-17.09
			c0.22-0.78,0.74-1.44,1.44-1.85l26.41-15.17c0.75-0.43,1.69-0.17,2.12,0.58c0.01,0.02,0.02,0.03,0.03,0.05l14.26,27.33
			c0.51,0.96,0.63,2.08,0.33,3.13l-4.56,16.29c-0.38,1.38-0.9,1.43-1.55,0.16c-3.79-7.4-7.29-14.23-10.51-20.49
			c-0.11-0.21-0.29-0.33-0.54-0.34c-0.32-0.02-0.61,0.2-0.67,0.51c-3.53,16-5.05,32.34-4.56,49.02c0.29,9.82,1.72,19.74,4.28,29.75
			c6.25,24.37,20.74,43.72,42.71,57.22c44.83,27.56,100.92,32.99,151.74,23.39c9.84-1.85,11.72,11.52,2.64,13.38
			c-28.19,5.79-57.12,6.47-86.82,2.05c-31.01-4.63-61.6-16.31-86.54-35.07c-39.07-29.39-46.6-80.23-40.13-125.45
			C330.2,1014.66,330.97,1009.95,331.85,1005.16z"/>
	</g>
	<g>
		<g>
			<path d="M829.75,891.15c-11.53,0-19.85,3.2-24.98,9.6c-5.13,6.4-7.69,15.15-7.69,26.25c0,5.39,0.63,10.28,1.9,14.67
				c1.27,4.39,3.17,8.17,5.71,11.34c2.54,3.17,5.71,5.63,9.52,7.38c3.81,1.74,8.25,2.62,13.32,2.62c2.75,0,5.1-0.05,7.06-0.16
				c1.95-0.1,3.67-0.32,5.15-0.63v-38.23h24.75v54.4c-2.96,1.16-7.72,2.41-14.28,3.73c-6.56,1.32-14.65,1.98-24.27,1.98
				c-8.25,0-15.73-1.27-22.44-3.81c-6.72-2.54-12.45-6.24-17.21-11.1c-4.76-4.86-8.43-10.84-11.02-17.92
				c-2.59-7.08-3.89-15.17-3.89-24.27c0-9.2,1.43-17.34,4.28-24.43c2.86-7.08,6.77-13.09,11.74-18c4.97-4.92,10.81-8.64,17.53-11.18
				c6.71-2.54,13.88-3.81,21.49-3.81c5.18,0,9.86,0.34,14.04,1.03c4.18,0.69,7.77,1.48,10.79,2.38c3.01,0.9,5.5,1.82,7.46,2.77
				c1.95,0.95,3.35,1.69,4.2,2.22l-7.14,19.83c-3.39-1.8-7.27-3.35-11.66-4.68C839.71,891.81,834.93,891.15,829.75,891.15z"/>
			<path d="M919.68,870.85c16.5,0,29.13,2.93,37.91,8.8c8.78,5.87,13.16,14.99,13.16,27.36c0,7.72-1.77,13.98-5.31,18.8
				c-3.54,4.81-8.64,8.59-15.31,11.34c2.22,2.75,4.55,5.9,6.98,9.44c2.43,3.54,4.84,7.24,7.22,11.1c2.38,3.86,4.68,7.88,6.9,12.06
				c2.22,4.18,4.28,8.27,6.19,12.29h-27.66c-2.02-3.59-4.06-7.24-6.13-10.95c-2.07-3.7-4.19-7.3-6.37-10.79
				c-2.18-3.49-4.33-6.79-6.45-9.91c-2.13-3.12-4.25-5.95-6.37-8.49h-12.21v40.13h-24.74V873.7c5.39-1.05,10.97-1.8,16.73-2.22
				C909.98,871.06,915.13,870.85,919.68,870.85z M921.11,891.94c-1.8,0-3.41,0.05-4.84,0.16c-1.43,0.11-2.78,0.21-4.04,0.32v29.82
				h6.98c9.3,0,15.97-1.16,19.99-3.49c4.02-2.32,6.03-6.29,6.03-11.9c0-5.39-2.04-9.22-6.11-11.5
				C935.04,893.08,929.04,891.94,921.11,891.94z"/>
			<path d="M1095.1,927c0,9.41-1.4,17.69-4.2,24.82c-2.8,7.14-6.64,13.11-11.5,17.92c-4.87,4.81-10.66,8.43-17.37,10.86
				c-6.72,2.43-13.93,3.65-21.65,3.65c-7.51,0-14.59-1.22-21.26-3.65c-6.66-2.43-12.48-6.05-17.45-10.86
				c-4.97-4.81-8.88-10.79-11.74-17.92c-2.86-7.14-4.28-15.41-4.28-24.82c0-9.41,1.48-17.69,4.44-24.82
				c2.96-7.14,6.95-13.14,11.97-18c5.02-4.86,10.84-8.51,17.45-10.94c6.61-2.43,13.56-3.65,20.86-3.65c7.5,0,14.59,1.22,21.25,3.65
				c6.66,2.43,12.48,6.08,17.45,10.94c4.97,4.87,8.88,10.87,11.74,18C1093.68,909.31,1095.1,917.59,1095.1,927z M1011.2,927
				c0,5.39,0.66,10.26,1.98,14.59c1.32,4.34,3.22,8.07,5.71,11.18c2.48,3.12,5.52,5.53,9.12,7.22c3.59,1.69,7.72,2.54,12.37,2.54
				c4.54,0,8.64-0.85,12.29-2.54c3.65-1.69,6.71-4.1,9.2-7.22c2.48-3.12,4.39-6.84,5.71-11.18c1.32-4.33,1.98-9.2,1.98-14.59
				c0-5.39-0.66-10.28-1.98-14.67c-1.32-4.39-3.23-8.14-5.71-11.26c-2.48-3.12-5.55-5.52-9.2-7.21c-3.65-1.69-7.75-2.54-12.29-2.54
				c-4.66,0-8.78,0.87-12.37,2.62c-3.6,1.74-6.64,4.18-9.12,7.3c-2.49,3.12-4.39,6.88-5.71,11.26
				C1011.86,916.87,1011.2,921.71,1011.2,927z"/>
			<path d="M1188,883.85c1.27,4.34,2.66,9.23,4.19,14.67c1.53,5.45,3.17,11.08,4.91,16.89c1.74,5.82,3.51,11.63,5.3,17.45
				c1.79,5.82,3.54,11.21,5.23,16.18c1.38-5.39,2.79-11.26,4.22-17.61c1.43-6.34,2.79-12.9,4.06-19.67
				c1.27-6.77,2.52-13.51,3.74-20.22c1.22-6.71,2.36-13.19,3.43-19.43h25.7c-3.72,18.4-8.01,37.06-12.84,55.99
				c-4.84,18.93-10.08,36.9-15.71,53.93h-22.63c-3.7-10.15-7.28-20.8-10.77-31.96c-3.48-11.15-6.91-22.34-10.29-33.55
				c-3.39,11.21-6.77,22.39-10.16,33.55c-3.39,11.16-6.93,21.81-10.64,31.96h-22.62c-5.63-17.02-10.86-35-15.69-53.93
				c-4.83-18.93-9.1-37.59-12.82-55.99h26.8c1.06,6.24,2.23,12.72,3.51,19.43c1.28,6.72,2.6,13.46,3.99,20.22
				c1.38,6.77,2.79,13.32,4.22,19.67c1.44,6.34,2.9,12.21,4.38,17.61c1.91-5.18,3.76-10.68,5.56-16.5
				c1.8-5.81,3.55-11.63,5.24-17.45c1.69-5.81,3.26-11.42,4.69-16.81c1.43-5.39,2.73-10.2,3.89-14.43H1188z"/>
			<path d="M1331.75,872.12c1.91,3.49,4.11,7.8,6.6,12.93c2.49,5.13,5.09,10.68,7.79,16.66c2.7,5.97,5.38,12.08,8.03,18.32
				c2.65,6.24,5.14,12.11,7.48,17.6c2.33-5.5,4.82-11.37,7.48-17.6c2.65-6.24,5.33-12.35,8.03-18.32c2.7-5.97,5.3-11.52,7.79-16.66
				c2.49-5.13,4.69-9.44,6.6-12.93h22.52c1.06,7.3,2.03,15.46,2.93,24.5c0.9,9.04,1.69,18.45,2.38,28.23
				c0.69,9.78,1.32,19.59,1.9,29.42c0.58,9.83,1.08,19.09,1.51,27.76h-24.11c-0.32-10.68-0.74-22.31-1.27-34.89
				c-0.53-12.58-1.32-25.27-2.38-38.07c-1.91,4.44-4.03,9.36-6.36,14.75c-2.33,5.39-4.64,10.79-6.92,16.18
				c-2.28,5.39-4.48,10.55-6.6,15.47c-2.12,4.92-3.92,9.12-5.41,12.61h-17.29c-1.49-3.49-3.29-7.69-5.41-12.61
				c-2.12-4.92-4.32-10.07-6.61-15.47c-2.28-5.39-4.59-10.79-6.92-16.18c-2.33-5.39-4.46-10.31-6.36-14.75
				c-1.06,12.8-1.85,25.49-2.38,38.07c-0.53,12.58-0.95,24.21-1.27,34.89h-24.11c0.42-8.67,0.92-17.92,1.51-27.76
				c0.58-9.83,1.21-19.64,1.9-29.42c0.69-9.78,1.48-19.19,2.38-28.23c0.9-9.04,1.87-17.21,2.93-24.5H1331.75z"/>
			<path d="M1549.52,927c0,9.41-1.4,17.69-4.2,24.82c-2.8,7.14-6.64,13.11-11.5,17.92c-4.87,4.81-10.66,8.43-17.37,10.86
				c-6.72,2.43-13.93,3.65-21.65,3.65c-7.51,0-14.59-1.22-21.26-3.65c-6.66-2.43-12.48-6.05-17.45-10.86
				c-4.97-4.81-8.88-10.79-11.74-17.92c-2.86-7.14-4.28-15.41-4.28-24.82c0-9.41,1.48-17.69,4.44-24.82
				c2.96-7.14,6.95-13.14,11.97-18c5.02-4.86,10.84-8.51,17.45-10.94c6.61-2.43,13.56-3.65,20.86-3.65c7.5,0,14.59,1.22,21.25,3.65
				s12.48,6.08,17.45,10.94c4.97,4.87,8.88,10.87,11.74,18C1548.09,909.31,1549.52,917.59,1549.52,927z M1465.61,927
				c0,5.39,0.66,10.26,1.98,14.59c1.32,4.34,3.22,8.07,5.71,11.18c2.48,3.12,5.52,5.53,9.12,7.22c3.59,1.69,7.72,2.54,12.37,2.54
				c4.54,0,8.64-0.85,12.29-2.54c3.65-1.69,6.71-4.1,9.2-7.22c2.48-3.12,4.39-6.84,5.71-11.18c1.32-4.33,1.98-9.2,1.98-14.59
				c0-5.39-0.66-10.28-1.98-14.67c-1.32-4.39-3.23-8.14-5.71-11.26c-2.48-3.12-5.55-5.52-9.2-7.21c-3.65-1.69-7.75-2.54-12.29-2.54
				c-4.66,0-8.78,0.87-12.37,2.62c-3.6,1.74-6.64,4.18-9.12,7.3c-2.49,3.12-4.39,6.88-5.71,11.26
				C1466.27,916.87,1465.61,921.71,1465.61,927z"/>
			<path d="M1602.34,870.85c16.5,0,29.13,2.93,37.91,8.8c8.78,5.87,13.16,14.99,13.16,27.36c0,7.72-1.77,13.98-5.31,18.8
				c-3.54,4.81-8.64,8.59-15.31,11.34c2.22,2.75,4.55,5.9,6.98,9.44c2.43,3.54,4.84,7.24,7.22,11.1c2.38,3.86,4.68,7.88,6.9,12.06
				c2.22,4.18,4.28,8.27,6.19,12.29h-27.66c-2.02-3.59-4.06-7.24-6.13-10.95c-2.07-3.7-4.19-7.3-6.37-10.79
				c-2.18-3.49-4.33-6.79-6.45-9.91c-2.13-3.12-4.25-5.95-6.37-8.49h-12.21v40.13h-24.74V873.7c5.39-1.05,10.97-1.8,16.73-2.22
				C1592.63,871.06,1597.79,870.85,1602.34,870.85z M1603.76,891.94c-1.8,0-3.41,0.05-4.84,0.16c-1.43,0.11-2.78,0.21-4.04,0.32
				v29.82h6.98c9.3,0,15.97-1.16,19.99-3.49c4.02-2.32,6.03-6.29,6.03-11.9c0-5.39-2.04-9.22-6.11-11.5
				C1617.69,893.08,1611.7,891.94,1603.76,891.94z"/>
			<path d="M1675.93,982.04V872.12h74.23v20.78h-49.49v21.57h43.94v20.3h-43.94v26.49h53.14v20.78H1675.93z"/>
		</g>
		<g>
			<path d="M797.03,1015.61v42.72h-4.2v-42.72h-21.19v-3.87h46.58v3.87H797.03z"/>
			<path d="M827.37,1058.32v-46.58h38.82v3.97h-34.21v16.04h32.48v3.86h-32.48v18.75h34.72v3.97H827.37z"/>
			<path d="M922.72,1056.49c-1.59,0.57-3.25,1.05-4.97,1.46c-1.72,0.41-3.53,0.72-5.42,0.95c-1.9,0.23-3.97,0.34-6.21,0.34
				c-2.76,0-5.41-0.23-7.95-0.68c-2.54-0.45-4.91-1.13-7.1-2.03c-2.19-0.91-4.18-2.03-5.97-3.37c-1.78-1.34-3.32-2.91-4.59-4.69
				c-1.28-1.78-2.26-3.8-2.95-6.04c-0.69-2.24-1.03-4.69-1.03-7.36c0-2.67,0.34-5.12,1.03-7.36c0.69-2.24,1.67-4.25,2.95-6.04
				c1.28-1.78,2.81-3.35,4.59-4.69c1.78-1.34,3.77-2.47,5.97-3.37c2.19-0.91,4.56-1.58,7.09-2.04c2.53-0.45,5.19-0.68,7.97-0.68
				c2.24,0,4.31,0.11,6.21,0.34c1.9,0.23,3.71,0.54,5.42,0.95s3.37,0.89,4.97,1.44c1.59,0.55,3.2,1.17,4.83,1.85v5.08
				c-1.29-0.81-2.67-1.58-4.14-2.3s-3.06-1.36-4.77-1.9c-1.71-0.54-3.54-0.97-5.48-1.29c-1.94-0.32-4.03-0.47-6.24-0.47
				c-4.48,0-8.36,0.49-11.64,1.46s-5.99,2.34-8.13,4.12c-2.14,1.77-3.72,3.92-4.75,6.44c-1.03,2.52-1.54,5.34-1.54,8.46
				c0,3.12,0.51,5.93,1.54,8.44c1.03,2.51,2.61,4.65,4.75,6.43c2.14,1.77,4.85,3.14,8.13,4.1c3.28,0.96,7.16,1.44,11.64,1.44
				c2.22,0,4.31-0.16,6.29-0.47c1.98-0.32,3.83-0.75,5.56-1.29c1.73-0.54,3.33-1.17,4.79-1.88c1.46-0.71,2.79-1.46,3.99-2.25v5.05
				C925.93,1055.3,924.32,1055.93,922.72,1056.49z"/>
			<path d="M986.1,1058.32v-22.65h-41.73v22.65h-4.24v-46.58h4.24v20.07h41.73v-20.07h4.24v46.58H986.1z"/>
			<path d="M1050.76,1058.32l-40.48-41.02v41.02h-4.24v-46.58h4.68l40.48,41.16v-41.16h4.17v46.58H1050.76z"/>
			<path d="M1126.9,1035.07c0,4.18-0.76,7.79-2.27,10.83c-1.51,3.04-3.59,5.55-6.23,7.53c-2.64,1.98-5.76,3.44-9.35,4.39
				c-3.59,0.95-7.47,1.42-11.62,1.42c-4.18,0-8.07-0.47-11.69-1.42c-3.61-0.95-6.75-2.41-9.42-4.39c-2.67-1.98-4.75-4.49-6.27-7.53
				c-1.51-3.04-2.27-6.65-2.27-10.83c0-2.78,0.35-5.31,1.05-7.58c0.7-2.27,1.68-4.31,2.95-6.1c1.26-1.8,2.8-3.35,4.59-4.66
				c1.8-1.31,3.79-2.4,6-3.27c2.2-0.87,4.57-1.51,7.1-1.93c2.53-0.42,5.18-0.63,7.96-0.63c4.16,0,8.03,0.47,11.62,1.43
				c3.59,0.95,6.71,2.41,9.35,4.39c2.64,1.98,4.72,4.49,6.23,7.53C1126.14,1027.27,1126.9,1030.88,1126.9,1035.07z M1122.56,1035.07
				c0-3.3-0.54-6.22-1.61-8.75c-1.08-2.53-2.67-4.66-4.77-6.39c-2.1-1.73-4.72-3.04-7.85-3.93c-3.13-0.89-6.77-1.34-10.91-1.34
				s-7.78,0.45-10.94,1.36c-3.15,0.9-5.79,2.22-7.92,3.95s-3.73,3.86-4.82,6.41c-1.09,2.54-1.63,5.44-1.63,8.7
				c0,3.3,0.54,6.22,1.63,8.75c1.09,2.53,2.69,4.66,4.82,6.39s4.77,3.04,7.92,3.93c3.16,0.89,6.8,1.34,10.94,1.34
				s7.77-0.45,10.91-1.34c3.13-0.89,5.75-2.2,7.85-3.93s3.69-3.86,4.77-6.39C1122.02,1041.28,1122.56,1038.37,1122.56,1035.07z"/>
			<path d="M1139.34,1058.32v-46.58h4.24v42.62h34.04v3.97H1139.34z"/>
			<path d="M1243.9,1035.07c0,4.18-0.76,7.79-2.27,10.83c-1.51,3.04-3.59,5.55-6.23,7.53c-2.64,1.98-5.76,3.44-9.35,4.39
				c-3.59,0.95-7.47,1.42-11.62,1.42c-4.18,0-8.07-0.47-11.69-1.42c-3.61-0.95-6.75-2.41-9.42-4.39c-2.67-1.98-4.75-4.49-6.27-7.53
				c-1.51-3.04-2.27-6.65-2.27-10.83c0-2.78,0.35-5.31,1.05-7.58c0.7-2.27,1.68-4.31,2.95-6.1c1.26-1.8,2.8-3.35,4.59-4.66
				c1.8-1.31,3.79-2.4,6-3.27c2.2-0.87,4.57-1.51,7.1-1.93c2.53-0.42,5.18-0.63,7.96-0.63c4.16,0,8.03,0.47,11.62,1.43
				c3.59,0.95,6.71,2.41,9.35,4.39c2.64,1.98,4.72,4.49,6.23,7.53C1243.14,1027.27,1243.9,1030.88,1243.9,1035.07z M1239.56,1035.07
				c0-3.3-0.54-6.22-1.61-8.75c-1.08-2.53-2.67-4.66-4.77-6.39c-2.1-1.73-4.72-3.04-7.85-3.93c-3.13-0.89-6.77-1.34-10.91-1.34
				s-7.78,0.45-10.94,1.36c-3.15,0.9-5.79,2.22-7.92,3.95s-3.73,3.86-4.82,6.41c-1.09,2.54-1.63,5.44-1.63,8.7
				c0,3.3,0.54,6.22,1.63,8.75c1.08,2.53,2.69,4.66,4.82,6.39s4.77,3.04,7.92,3.93c3.16,0.89,6.8,1.34,10.94,1.34
				s7.77-0.45,10.91-1.34c3.13-0.89,5.75-2.2,7.85-3.93c2.1-1.73,3.69-3.86,4.77-6.39
				C1239.02,1041.28,1239.56,1038.37,1239.56,1035.07z"/>
			<path d="M1283.77,1010.89c2.15,0,4.15,0.11,6,0.32c1.85,0.21,3.63,0.52,5.32,0.91s3.34,0.87,4.95,1.42
				c1.6,0.56,3.22,1.17,4.85,1.85v5.15c-1.29-0.81-2.66-1.58-4.12-2.3c-1.46-0.72-3.03-1.36-4.72-1.9
				c-1.69-0.54-3.49-0.97-5.43-1.29c-1.93-0.32-4.01-0.47-6.22-0.47c-4.52,0-8.47,0.47-11.84,1.43c-3.37,0.95-6.17,2.3-8.41,4.07
				c-2.24,1.76-3.92,3.91-5.04,6.44c-1.12,2.53-1.68,5.38-1.68,8.54c0,2.96,0.55,5.69,1.65,8.19c1.1,2.5,2.76,4.65,4.99,6.46
				c2.23,1.81,5.02,3.22,8.36,4.24c3.35,1.02,7.27,1.53,11.77,1.53c1.76,0,3.51-0.07,5.24-0.2c1.73-0.14,3.37-0.31,4.9-0.52
				c1.54-0.22,2.94-0.45,4.21-0.71c1.26-0.26,2.34-0.52,3.22-0.8v-14.14h-18.95v-3.97h23.19v20.48c-1.67,0.59-3.36,1.11-5.07,1.56
				c-1.71,0.45-3.47,0.83-5.29,1.14c-1.82,0.3-3.71,0.54-5.66,0.69c-1.96,0.16-4.01,0.24-6.16,0.24c-4.38,0-8.45-0.49-12.2-1.48
				c-3.75-0.98-7-2.47-9.75-4.47c-2.74-2-4.9-4.51-6.46-7.54c-1.56-3.03-2.34-6.59-2.34-10.68c0-2.74,0.36-5.23,1.08-7.47
				c0.72-2.25,1.75-4.27,3.07-6.07c1.32-1.8,2.91-3.36,4.78-4.7c1.86-1.33,3.93-2.43,6.2-3.31c2.27-0.87,4.72-1.53,7.34-1.97
				C1278.18,1011.11,1280.92,1010.89,1283.77,1010.89z"/>
			<path d="M1338.93,1038.59v19.73h-4.24v-19.73l-21.87-26.85h5.05l18.95,23.33l18.89-23.33h5.08L1338.93,1038.59z"/>
			<path d="M1442.67,1026.05c0,2.33-0.38,4.39-1.14,6.17c-0.76,1.78-1.95,3.29-3.58,4.51c-1.63,1.22-3.72,2.14-6.29,2.76
				c-2.57,0.62-5.66,0.93-9.27,0.93h-20.92v17.9h-4.24v-46.58h25.16c3.61,0,6.71,0.31,9.27,0.93c2.57,0.62,4.66,1.53,6.29,2.73
				c1.63,1.2,2.82,2.69,3.58,4.47C1442.29,1021.66,1442.67,1023.72,1442.67,1026.05z M1438.33,1026.05c0-2.21-0.37-4-1.1-5.36
				c-0.74-1.36-1.87-2.4-3.39-3.14c-1.53-0.74-3.46-1.23-5.8-1.48c-2.34-0.25-5.12-0.37-8.33-0.37h-18.22v20.75h18.22
				c1.25,0,2.57,0,3.99,0.02c1.41,0.01,2.81-0.06,4.19-0.2c1.38-0.15,2.7-0.41,3.95-0.78c1.26-0.37,2.36-0.94,3.33-1.71
				c0.96-0.77,1.73-1.77,2.31-3.02C1438.04,1029.52,1438.33,1027.94,1438.33,1026.05z"/>
			<path d="M1477.74,1058.32h-6.34l-23.26-46.58h4.74l21.8,43.67l21.8-43.67h4.71L1477.74,1058.32z"/>
			<path d="M1529.76,1015.61v42.72h-4.2v-42.72h-21.19v-3.87h46.58v3.87H1529.76z"/>
			<path d="M1555.73,1058.32v-7.36h5.9v7.36H1555.73z"/>
			<path d="M1599.06,1058.32v-46.58h4.24v42.62h34.04v3.97H1599.06z"/>
			<path d="M1657.61,1015.61v42.72h-4.2v-42.72h-21.19v-3.87h46.58v3.87H1657.61z"/>
			<path d="M1738.8,1035c0,2.98-0.31,5.64-0.93,7.95c-0.62,2.32-1.5,4.33-2.63,6.05c-1.13,1.72-2.5,3.18-4.12,4.37
				c-1.62,1.2-3.41,2.16-5.39,2.88c-1.98,0.72-4.13,1.25-6.44,1.58s-4.75,0.49-7.3,0.49h-24.04v-46.58h23.97
				c3.82,0,7.37,0.37,10.65,1.12c3.28,0.75,6.12,2.02,8.53,3.82c2.41,1.8,4.29,4.19,5.66,7.17
				C1738.12,1026.83,1738.8,1030.54,1738.8,1035z M1734.46,1035.01c0-2.53-0.25-4.77-0.74-6.72c-0.5-1.94-1.21-3.64-2.14-5.07
				c-0.93-1.43-2.06-2.64-3.39-3.61c-1.34-0.97-2.84-1.76-4.51-2.36c-1.67-0.6-3.49-1.02-5.46-1.27c-1.97-0.25-4.06-0.37-6.28-0.37
				h-19.75v38.85h19.75c3.32,0,6.37-0.3,9.13-0.9c2.76-0.6,5.13-1.64,7.11-3.12c1.98-1.48,3.52-3.47,4.63-5.97
				S1734.46,1038.81,1734.46,1035.01z"/>
			<path d="M1746.77,1058.32v-7.36h5.9v7.36H1746.77z"/>
			<path d="M1177.93,1090.76c-0.38-0.18-0.81-0.38-1.3-0.58c-0.49-0.21-1.05-0.39-1.69-0.56c-0.63-0.16-1.34-0.3-2.14-0.41
				c-0.79-0.11-1.67-0.17-2.63-0.17c-1.17,0-2.21,0.07-3.12,0.2c-0.91,0.14-1.68,0.34-2.32,0.63c-0.63,0.28-1.12,0.64-1.45,1.08
				c-0.33,0.43-0.5,0.95-0.5,1.55c0,0.5,0.16,0.94,0.47,1.32c0.31,0.38,0.74,0.71,1.27,1c0.54,0.29,1.16,0.55,1.88,0.79
				c0.72,0.23,1.48,0.46,2.29,0.67c0.81,0.21,1.64,0.42,2.49,0.63c0.85,0.21,1.68,0.44,2.49,0.69c0.8,0.25,1.57,0.52,2.29,0.82
				c0.72,0.3,1.35,0.66,1.88,1.06c0.53,0.4,0.96,0.87,1.27,1.39c0.31,0.52,0.47,1.12,0.47,1.81c0,0.74-0.14,1.39-0.42,1.94
				c-0.28,0.56-0.66,1.03-1.14,1.43c-0.48,0.4-1.04,0.73-1.68,1s-1.33,0.48-2.05,0.63c-0.73,0.15-1.48,0.26-2.26,0.33
				s-1.54,0.09-2.29,0.09c-1.73,0-3.29-0.12-4.69-0.38c-1.4-0.25-2.74-0.59-4.01-1.03v-2.21c1.31,0.78,2.7,1.32,4.16,1.61
				c1.46,0.29,3,0.43,4.61,0.43c1.14,0,2.19-0.07,3.15-0.2c0.96-0.13,1.8-0.35,2.5-0.64c0.7-0.29,1.25-0.68,1.64-1.15
				c0.39-0.47,0.59-1.05,0.59-1.74c0-0.55-0.16-1.03-0.47-1.45c-0.31-0.41-0.74-0.78-1.27-1.09c-0.53-0.31-1.16-0.59-1.88-0.83
				c-0.72-0.24-1.48-0.46-2.28-0.67c-0.8-0.21-1.63-0.41-2.48-0.61c-0.85-0.2-1.68-0.41-2.48-0.64s-1.56-0.49-2.28-0.78
				c-0.72-0.29-1.35-0.63-1.88-1.02c-0.53-0.39-0.96-0.84-1.27-1.35c-0.31-0.51-0.47-1.1-0.47-1.78c0-0.67,0.12-1.26,0.38-1.77
				c0.25-0.51,0.59-0.96,1.03-1.34c0.44-0.38,0.95-0.69,1.54-0.95c0.59-0.26,1.22-0.46,1.89-0.61c0.67-0.15,1.37-0.26,2.09-0.32
				c0.72-0.07,1.44-0.1,2.14-0.1c0.77,0,1.5,0.03,2.19,0.1c0.69,0.07,1.35,0.16,2,0.27c0.64,0.11,1.27,0.24,1.88,0.38
				c0.61,0.15,1.23,0.3,1.86,0.46V1090.76z"/>
			<path d="M1185.19,1107.7v-19.88h1.81v19.88H1185.19z"/>
			<path d="M1212.78,1107.7l-17.27-17.5v17.5h-1.81v-19.88h2l17.27,17.56v-17.56h1.78v19.88H1212.78z"/>
			<path d="M1239.75,1106.92c-0.68,0.24-1.39,0.45-2.12,0.62c-0.73,0.17-1.5,0.31-2.32,0.4c-0.81,0.1-1.69,0.14-2.65,0.14
				c-1.18,0-2.31-0.1-3.39-0.29c-1.08-0.19-2.1-0.48-3.03-0.87c-0.93-0.39-1.78-0.86-2.55-1.44s-1.42-1.24-1.96-2
				c-0.54-0.76-0.97-1.62-1.26-2.57c-0.29-0.95-0.44-2-0.44-3.14s0.15-2.18,0.44-3.14c0.29-0.96,0.71-1.81,1.26-2.57
				c0.54-0.76,1.2-1.43,1.96-2c0.76-0.57,1.61-1.05,2.55-1.44c0.94-0.39,1.94-0.67,3.02-0.87c1.08-0.19,2.21-0.29,3.4-0.29
				c0.96,0,1.84,0.05,2.65,0.15c0.81,0.1,1.58,0.23,2.32,0.4c0.73,0.17,1.44,0.38,2.12,0.61c0.68,0.24,1.37,0.5,2.06,0.79v2.17
				c-0.55-0.35-1.14-0.68-1.77-0.98c-0.63-0.31-1.31-0.58-2.03-0.81c-0.73-0.23-1.51-0.41-2.34-0.55c-0.83-0.13-1.72-0.2-2.67-0.2
				c-1.91,0-3.56,0.21-4.96,0.62c-1.4,0.41-2.56,1-3.47,1.76c-0.91,0.76-1.59,1.67-2.03,2.75c-0.44,1.08-0.66,2.28-0.66,3.61
				c0,1.33,0.22,2.53,0.66,3.6c0.44,1.07,1.12,1.98,2.03,2.74c0.91,0.76,2.07,1.34,3.47,1.75c1.4,0.41,3.06,0.62,4.96,0.62
				c0.95,0,1.84-0.07,2.69-0.2c0.84-0.13,1.64-0.32,2.37-0.55c0.74-0.23,1.42-0.5,2.04-0.8c0.62-0.3,1.19-0.62,1.7-0.96v2.16
				C1241.12,1106.41,1240.43,1106.68,1239.75,1106.92z"/>
			<path d="M1247.18,1107.7v-19.88h16.56v1.69h-14.6v6.84h13.86v1.65h-13.86v8h14.81v1.69H1247.18z"/>
			<path d="M1278.53,1107.7v-1.2c2.5-1.4,4.76-2.69,6.79-3.86c2.03-1.17,3.76-2.27,5.18-3.3c1.43-1.03,2.52-2.01,3.28-2.94
				c0.76-0.93,1.12-1.85,1.08-2.77c-0.03-0.69-0.22-1.31-0.57-1.87c-0.35-0.56-0.86-1.05-1.53-1.45c-0.66-0.4-1.48-0.71-2.46-0.93
				c-0.97-0.22-2.1-0.33-3.37-0.33c-0.79,0-1.54,0.04-2.26,0.13c-0.72,0.09-1.41,0.22-2.08,0.4c-0.67,0.18-1.32,0.4-1.96,0.67
				c-0.63,0.27-1.26,0.59-1.88,0.96v-1.98c0.67-0.27,1.31-0.51,1.94-0.73c0.63-0.22,1.26-0.4,1.91-0.56
				c0.64-0.16,1.31-0.27,2.01-0.35c0.69-0.08,1.44-0.12,2.23-0.12c1.42,0,2.73,0.14,3.94,0.42c1.2,0.28,2.25,0.69,3.13,1.22
				c0.88,0.53,1.56,1.19,2.06,1.97c0.5,0.78,0.74,1.68,0.74,2.69c0,0.91-0.31,1.83-0.94,2.75c-0.63,0.92-1.54,1.87-2.74,2.85
				c-1.2,0.98-2.68,2.02-4.43,3.12c-1.76,1.09-3.76,2.28-6.02,3.57h14.55v1.65H1278.53z"/>
			<path d="M1321.78,1097.78c0,1.11-0.14,2.13-0.41,3.07c-0.28,0.94-0.65,1.79-1.14,2.55c-0.48,0.76-1.06,1.43-1.72,2.02
				c-0.67,0.58-1.39,1.07-2.16,1.47s-1.6,0.69-2.46,0.9c-0.86,0.2-1.74,0.3-2.62,0.3s-1.76-0.1-2.62-0.3
				c-0.86-0.2-1.69-0.5-2.47-0.9c-0.78-0.4-1.5-0.89-2.17-1.47c-0.67-0.58-1.24-1.26-1.73-2.02c-0.49-0.76-0.87-1.61-1.14-2.55
				c-0.28-0.94-0.41-1.96-0.41-3.07s0.14-2.13,0.41-3.08c0.28-0.94,0.66-1.79,1.14-2.55c0.49-0.76,1.06-1.43,1.73-2.02
				c0.67-0.58,1.39-1.07,2.17-1.47c0.78-0.4,1.6-0.69,2.47-0.9c0.86-0.2,1.74-0.3,2.62-0.3s1.76,0.1,2.62,0.3
				c0.86,0.2,1.68,0.5,2.46,0.9c0.78,0.4,1.5,0.88,2.16,1.47c0.67,0.58,1.24,1.26,1.72,2.02c0.48,0.76,0.86,1.61,1.14,2.55
				C1321.65,1095.64,1321.78,1096.67,1321.78,1097.78z M1319.98,1097.78c0-0.98-0.12-1.88-0.35-2.71c-0.24-0.82-0.56-1.55-0.97-2.2
				c-0.41-0.65-0.89-1.21-1.45-1.69c-0.56-0.48-1.16-0.88-1.8-1.2c-0.64-0.31-1.31-0.55-2.02-0.71c-0.7-0.16-1.41-0.24-2.11-0.24
				c-1.06,0-2.11,0.17-3.15,0.53s-1.98,0.89-2.8,1.61c-0.83,0.72-1.5,1.63-2.01,2.73c-0.51,1.09-0.77,2.39-0.77,3.87
				s0.26,2.77,0.77,3.87c0.51,1.09,1.18,2,2.01,2.73c0.83,0.72,1.76,1.26,2.8,1.61c1.04,0.35,2.09,0.53,3.15,0.53
				c0.7,0,1.41-0.08,2.11-0.24c0.7-0.16,1.38-0.4,2.02-0.72c0.65-0.32,1.25-0.72,1.81-1.2c0.56-0.48,1.04-1.05,1.45-1.7
				c0.41-0.65,0.73-1.38,0.96-2.19C1319.86,1099.66,1319.98,1098.76,1319.98,1097.78z"/>
			<path d="M1324.78,1107.7v-1.2c2.5-1.4,4.76-2.69,6.79-3.86c2.03-1.17,3.76-2.27,5.18-3.3c1.43-1.03,2.52-2.01,3.28-2.94
				c0.76-0.93,1.12-1.85,1.08-2.77c-0.03-0.69-0.22-1.31-0.57-1.87c-0.35-0.56-0.86-1.05-1.53-1.45c-0.66-0.4-1.48-0.71-2.46-0.93
				c-0.97-0.22-2.1-0.33-3.37-0.33c-0.79,0-1.54,0.04-2.26,0.13c-0.72,0.09-1.41,0.22-2.08,0.4c-0.67,0.18-1.32,0.4-1.96,0.67
				c-0.63,0.27-1.26,0.59-1.88,0.96v-1.98c0.67-0.27,1.31-0.51,1.94-0.73c0.63-0.22,1.26-0.4,1.91-0.56
				c0.64-0.16,1.31-0.27,2.01-0.35c0.69-0.08,1.44-0.12,2.23-0.12c1.42,0,2.73,0.14,3.94,0.42c1.2,0.28,2.25,0.69,3.13,1.22
				c0.88,0.53,1.56,1.19,2.06,1.97c0.5,0.78,0.74,1.68,0.74,2.69c0,0.91-0.31,1.83-0.94,2.75c-0.63,0.92-1.54,1.87-2.74,2.85
				c-1.2,0.98-2.68,2.02-4.43,3.12c-1.76,1.09-3.76,2.28-6.02,3.57h14.55v1.65H1324.78z"/>
			<path d="M1361.95,1102.61v5.09h-1.78v-5.09h-14.13v-1.59l12.86-13.19h3.05v13.13h5.09v1.65H1361.95z M1360.17,1088.89
				l-11.76,12.06h11.76V1088.89z"/>
		</g>
	</g>
</g>
<path class="st0" d="M-1035.73,403.84c4.32-3.51,27.46-20.74,54.84-20.74c15.02,0,34.82,11.15,34.82,21.68
	c0,22.03-49.67,35.89-49.67,10.05c0-41.41,66.31-62.25,76.91-62.25"/>
<path class="st0" d="M-967.75,437.91c-13.64,2.21-49.8,2.65-40.14-36.5"/>
<path d="M-918.7,351.01v2.07c-0.08,0.31-0.3,0.51-0.67,0.6c-10.25,2.49-20.1,5.82-29.55,9.98c-10.36,4.56-20.45,10.55-28.74,18.07
	c-0.04,0.04-0.04,0.1,0,0.14c0.01,0.01,0.03,0.02,0.04,0.03c0.32,0.1,0.63,0.16,0.95,0.2c6.56,0.76,12.67,2.76,18.34,5.99
	c7.74,4.41,16.17,11.6,13.41,21.73c-0.95,3.49-3.3,6.77-5.96,9.27c-6.65,6.24-15.82,10.11-24.7,11.19
	c-6.62,0.81-14.66-0.23-18.87-6.07c-1.45-2.01-2.34-4.31-2.68-6.9c-0.26-1.98-0.28-3.87-0.07-5.66c1.08-9.28,5.32-17.99,11.36-25.26
	c0.5-0.6,0.98-1.18,1.45-1.76c0.07-0.08,0.05-0.13-0.06-0.15c-0.37-0.06-0.74-0.08-1.11-0.06c-5.17,0.3-10.24,1.2-15.19,2.69
	c-6.94,2.09-13.63,4.92-20.08,8.51c-4.87,2.71-9.47,5.63-13.79,8.76c-0.03,0.02-0.06,0.05-0.1,0.08c-0.05,0.06-0.09,0.05-0.11-0.03
	l-0.11-0.41v-2.74c6.6-4.75,13.81-8.91,21.62-12.46c7.29-3.31,14.79-5.51,22.5-6.59c2.55-0.36,5.58-0.53,9.11-0.53
	c0.09,0,0.16-0.03,0.22-0.09c7.96-7.81,17.6-13.95,27.73-18.75c10.77-5.1,22.37-9.14,34.79-12.12c0.07-0.02,0.13,0,0.17,0.05
	C-918.77,350.84-918.73,350.92-918.7,351.01z M-975.47,427.46c7.52-0.97,15.54-4.31,21.37-9.2c4.53-3.81,8.4-9.35,6.48-15.55
	c-0.88-2.86-3.09-5.67-5.37-7.57c-7.79-6.49-16.85-10.06-27.18-10.72c-0.18-0.01-0.36,0.06-0.48,0.19
	c-6.97,7.38-12.09,15.89-13.66,25.94c-0.3,1.88-0.37,3.94-0.19,5.8c0.05,0.53,0.13,1.07,0.25,1.62c1.45,6.95,7.67,9.67,14.16,9.74
	C-978.43,427.72-976.89,427.64-975.47,427.46z"/>
<path class="st1" d="M-1010.77,405.24c0.05-0.29-0.05-0.36-0.3-0.21l-2.93,1.69c-0.18,0.1-0.25,0.06-0.19-0.15l0.96-3.4
	c0.04-0.15,0.15-0.29,0.29-0.37l5.25-3.02c0.15-0.08,0.34-0.03,0.42,0.11c0,0,0,0.01,0.01,0.01l2.83,5.43
	c0.1,0.19,0.12,0.41,0.07,0.62l-0.91,3.24c-0.08,0.27-0.18,0.28-0.31,0.03c-0.75-1.47-1.45-2.83-2.09-4.07
	c-0.02-0.04-0.06-0.07-0.11-0.07c-0.06,0-0.12,0.04-0.13,0.1c-0.7,3.18-1,6.43-0.91,9.74c0.06,1.95,0.34,3.92,0.85,5.91
	c1.24,4.84,4.12,8.69,8.49,11.37c8.91,5.48,20.05,6.55,30.15,4.65c1.95-0.37,2.33,2.29,0.52,2.66c-5.6,1.15-11.35,1.29-17.25,0.41
	c-6.16-0.92-12.24-3.24-17.2-6.97c-7.76-5.84-9.26-15.94-7.97-24.93C-1011.1,407.13-1010.95,406.19-1010.77,405.24z"/>
<g>
	<path d="M-911.84,382.59c-2.29,0-3.94,0.64-4.96,1.91c-1.02,1.27-1.53,3.01-1.53,5.22c0,1.07,0.13,2.04,0.38,2.92
		c0.25,0.87,0.63,1.62,1.13,2.25s1.13,1.12,1.89,1.47c0.76,0.35,1.64,0.52,2.65,0.52c0.55,0,1.01-0.01,1.4-0.03
		c0.39-0.02,0.73-0.06,1.02-0.13v-7.6h4.92v10.81c-0.59,0.23-1.53,0.48-2.84,0.74c-1.3,0.26-2.91,0.39-4.82,0.39
		c-1.64,0-3.13-0.25-4.46-0.76c-1.33-0.5-2.47-1.24-3.42-2.21c-0.95-0.97-1.68-2.15-2.19-3.56c-0.52-1.41-0.77-3.01-0.77-4.82
		c0-1.83,0.28-3.45,0.85-4.85s1.34-2.6,2.33-3.58c0.99-0.98,2.15-1.72,3.48-2.22c1.33-0.5,2.76-0.76,4.27-0.76
		c1.03,0,1.96,0.07,2.79,0.21c0.83,0.14,1.54,0.29,2.14,0.47c0.6,0.18,1.09,0.36,1.48,0.55c0.39,0.19,0.67,0.34,0.83,0.44
		l-1.42,3.94c-0.67-0.36-1.44-0.67-2.32-0.93C-909.86,382.72-910.81,382.59-911.84,382.59z"/>
	<path d="M-893.97,378.55c3.28,0,5.79,0.58,7.53,1.75c1.74,1.17,2.62,2.98,2.62,5.44c0,1.53-0.35,2.78-1.06,3.73
		c-0.7,0.96-1.72,1.71-3.04,2.25c0.44,0.55,0.9,1.17,1.39,1.88c0.48,0.7,0.96,1.44,1.43,2.21c0.47,0.77,0.93,1.57,1.37,2.4
		c0.44,0.83,0.85,1.64,1.23,2.44h-5.5c-0.4-0.71-0.81-1.44-1.22-2.17c-0.41-0.73-0.83-1.45-1.27-2.14
		c-0.43-0.69-0.86-1.35-1.28-1.97c-0.42-0.62-0.84-1.18-1.27-1.69h-2.43v7.97h-4.92v-21.53c1.07-0.21,2.18-0.36,3.32-0.44
		C-895.9,378.6-894.87,378.55-893.97,378.55z M-893.69,382.75c-0.36,0-0.68,0.01-0.96,0.03s-0.55,0.04-0.8,0.06v5.92h1.39
		c1.85,0,3.17-0.23,3.97-0.69c0.8-0.46,1.2-1.25,1.2-2.36c0-1.07-0.4-1.83-1.21-2.28C-890.92,382.97-892.11,382.75-893.69,382.75z"
		/>
	<path d="M-859.11,389.71c0,1.87-0.28,3.51-0.84,4.93c-0.56,1.42-1.32,2.61-2.28,3.56c-0.97,0.96-2.12,1.68-3.45,2.16
		c-1.33,0.48-2.77,0.73-4.3,0.73c-1.49,0-2.9-0.24-4.22-0.73s-2.48-1.2-3.47-2.16c-0.99-0.96-1.76-2.14-2.33-3.56
		c-0.57-1.42-0.85-3.06-0.85-4.93s0.29-3.51,0.88-4.93c0.59-1.42,1.38-2.61,2.38-3.58c1-0.97,2.15-1.69,3.47-2.17
		c1.31-0.48,2.69-0.73,4.14-0.73c1.49,0,2.9,0.24,4.22,0.73s2.48,1.21,3.47,2.17c0.99,0.97,1.76,2.16,2.33,3.58
		C-859.4,386.2-859.11,387.84-859.11,389.71z M-875.78,389.71c0,1.07,0.13,2.04,0.39,2.9c0.26,0.86,0.64,1.6,1.13,2.22
		c0.49,0.62,1.1,1.1,1.81,1.43c0.71,0.34,1.53,0.5,2.46,0.5c0.9,0,1.72-0.17,2.44-0.5c0.72-0.34,1.33-0.81,1.83-1.43
		c0.49-0.62,0.87-1.36,1.13-2.22c0.26-0.86,0.39-1.83,0.39-2.9c0-1.07-0.13-2.04-0.39-2.92c-0.26-0.87-0.64-1.62-1.13-2.24
		c-0.49-0.62-1.1-1.1-1.83-1.43c-0.73-0.34-1.54-0.5-2.44-0.5c-0.93,0-1.74,0.17-2.46,0.52c-0.71,0.35-1.32,0.83-1.81,1.45
		c-0.49,0.62-0.87,1.37-1.13,2.24C-875.65,387.7-875.78,388.66-875.78,389.71z"/>
	<path d="M-840.65,381.14c0.25,0.86,0.53,1.83,0.83,2.92s0.63,2.2,0.98,3.36c0.35,1.16,0.7,2.31,1.05,3.47
		c0.36,1.16,0.7,2.23,1.04,3.21c0.27-1.07,0.55-2.24,0.84-3.5c0.28-1.26,0.55-2.56,0.81-3.91c0.25-1.34,0.5-2.68,0.74-4.02
		c0.24-1.33,0.47-2.62,0.68-3.86h5.11c-0.74,3.66-1.59,7.36-2.55,11.13c-0.96,3.76-2,7.33-3.12,10.72h-4.5
		c-0.73-2.02-1.45-4.13-2.14-6.35c-0.69-2.22-1.37-4.44-2.04-6.67c-0.67,2.23-1.35,4.45-2.02,6.67c-0.67,2.22-1.38,4.33-2.11,6.35
		h-4.49c-1.12-3.38-2.16-6.95-3.12-10.72c-0.96-3.76-1.81-7.47-2.55-11.13h5.33c0.21,1.24,0.44,2.53,0.7,3.86
		c0.25,1.33,0.52,2.67,0.79,4.02c0.27,1.35,0.55,2.65,0.84,3.91s0.58,2.43,0.87,3.5c0.38-1.03,0.75-2.12,1.11-3.28
		c0.36-1.16,0.71-2.31,1.04-3.47c0.34-1.16,0.65-2.27,0.93-3.34c0.28-1.07,0.54-2.03,0.77-2.87H-840.65z"/>
	<path d="M-812.09,378.81c0.38,0.69,0.82,1.55,1.31,2.57c0.49,1.02,1.01,2.12,1.55,3.31c0.54,1.19,1.07,2.4,1.6,3.64
		c0.53,1.24,1.02,2.41,1.49,3.5c0.46-1.09,0.96-2.26,1.49-3.5c0.53-1.24,1.06-2.45,1.6-3.64s1.05-2.29,1.55-3.31
		c0.5-1.02,0.93-1.88,1.31-2.57h4.48c0.21,1.45,0.4,3.07,0.58,4.87c0.18,1.8,0.34,3.67,0.47,5.61c0.14,1.94,0.26,3.89,0.38,5.85
		c0.12,1.95,0.22,3.79,0.3,5.52h-4.79c-0.06-2.12-0.15-4.43-0.25-6.93c-0.11-2.5-0.26-5.02-0.47-7.56c-0.38,0.88-0.8,1.86-1.26,2.93
		c-0.46,1.07-0.92,2.14-1.38,3.21c-0.45,1.07-0.89,2.1-1.31,3.07c-0.42,0.98-0.78,1.81-1.07,2.51h-3.44
		c-0.3-0.69-0.65-1.53-1.07-2.51c-0.42-0.98-0.86-2-1.31-3.07c-0.45-1.07-0.91-2.14-1.38-3.21c-0.46-1.07-0.89-2.05-1.26-2.93
		c-0.21,2.54-0.37,5.06-0.47,7.56c-0.11,2.5-0.19,4.81-0.25,6.93h-4.79c0.08-1.72,0.18-3.56,0.3-5.52c0.12-1.95,0.24-3.9,0.38-5.85
		c0.14-1.94,0.29-3.81,0.47-5.61c0.18-1.8,0.37-3.42,0.58-4.87H-812.09z"/>
	<path d="M-768.82,389.71c0,1.87-0.28,3.51-0.84,4.93c-0.56,1.42-1.32,2.61-2.28,3.56c-0.97,0.96-2.12,1.68-3.45,2.16
		c-1.33,0.48-2.77,0.73-4.3,0.73c-1.49,0-2.9-0.24-4.22-0.73s-2.48-1.2-3.47-2.16c-0.99-0.96-1.76-2.14-2.33-3.56
		c-0.57-1.42-0.85-3.06-0.85-4.93s0.29-3.51,0.88-4.93c0.59-1.42,1.38-2.61,2.38-3.58c1-0.97,2.15-1.69,3.47-2.17
		c1.31-0.48,2.69-0.73,4.14-0.73c1.49,0,2.9,0.24,4.22,0.73s2.48,1.21,3.47,2.17c0.99,0.97,1.76,2.16,2.33,3.58
		C-769.1,386.2-768.82,387.84-768.82,389.71z M-785.49,389.71c0,1.07,0.13,2.04,0.39,2.9c0.26,0.86,0.64,1.6,1.13,2.22
		c0.49,0.62,1.1,1.1,1.81,1.43c0.71,0.34,1.53,0.5,2.46,0.5c0.9,0,1.72-0.17,2.44-0.5c0.72-0.34,1.33-0.81,1.83-1.43
		c0.49-0.62,0.87-1.36,1.13-2.22c0.26-0.86,0.39-1.83,0.39-2.9c0-1.07-0.13-2.04-0.39-2.92c-0.26-0.87-0.64-1.62-1.13-2.24
		c-0.49-0.62-1.1-1.1-1.83-1.43c-0.73-0.34-1.54-0.5-2.44-0.5c-0.93,0-1.74,0.17-2.46,0.52c-0.71,0.35-1.32,0.83-1.81,1.45
		c-0.49,0.62-0.87,1.37-1.13,2.24C-785.36,387.7-785.49,388.66-785.49,389.71z"/>
	<path d="M-758.32,378.55c3.28,0,5.79,0.58,7.53,1.75c1.74,1.17,2.62,2.98,2.62,5.44c0,1.53-0.35,2.78-1.06,3.73
		c-0.7,0.96-1.72,1.71-3.04,2.25c0.44,0.55,0.9,1.17,1.39,1.88c0.48,0.7,0.96,1.44,1.43,2.21c0.47,0.77,0.93,1.57,1.37,2.4
		c0.44,0.83,0.85,1.64,1.23,2.44h-5.5c-0.4-0.71-0.81-1.44-1.22-2.17c-0.41-0.73-0.83-1.45-1.27-2.14
		c-0.43-0.69-0.86-1.35-1.28-1.97c-0.42-0.62-0.84-1.18-1.27-1.69h-2.43v7.97h-4.92v-21.53c1.07-0.21,2.18-0.36,3.32-0.44
		C-760.25,378.6-759.23,378.55-758.32,378.55z M-758.04,382.75c-0.36,0-0.68,0.01-0.96,0.03s-0.55,0.04-0.8,0.06v5.92h1.39
		c1.85,0,3.17-0.23,3.97-0.69c0.8-0.46,1.2-1.25,1.2-2.36c0-1.07-0.4-1.83-1.21-2.28C-755.27,382.97-756.46,382.75-758.04,382.75z"
		/>
	<path d="M-743.7,400.65v-21.84h14.75v4.13h-9.83v4.29h8.73v4.03h-8.73v5.26h10.56v4.13H-743.7z"/>
</g>
<g>
	<path d="M-920.45,407.23v8.71h-0.86v-8.71h-4.32v-0.79h9.5v0.79H-920.45z"/>
	<path d="M-914.26,415.94v-9.5h7.91v0.81h-6.97v3.27h6.62v0.79h-6.62v3.82h7.08v0.81H-914.26z"/>
	<path d="M-894.82,415.57c-0.32,0.12-0.66,0.21-1.01,0.3s-0.72,0.15-1.11,0.19c-0.39,0.05-0.81,0.07-1.27,0.07
		c-0.56,0-1.1-0.05-1.62-0.14c-0.52-0.09-1-0.23-1.45-0.41c-0.45-0.18-0.85-0.41-1.22-0.69c-0.36-0.27-0.68-0.59-0.94-0.96
		s-0.46-0.77-0.6-1.23c-0.14-0.46-0.21-0.96-0.21-1.5c0-0.54,0.07-1.04,0.21-1.5c0.14-0.46,0.34-0.87,0.6-1.23
		c0.26-0.36,0.57-0.68,0.94-0.96c0.36-0.27,0.77-0.5,1.22-0.69c0.45-0.18,0.93-0.32,1.44-0.42c0.52-0.09,1.06-0.14,1.62-0.14
		c0.46,0,0.88,0.02,1.27,0.07c0.39,0.05,0.76,0.11,1.11,0.19s0.69,0.18,1.01,0.29s0.65,0.24,0.98,0.38v1.04
		c-0.26-0.17-0.54-0.32-0.84-0.47s-0.62-0.28-0.97-0.39c-0.35-0.11-0.72-0.2-1.12-0.26c-0.4-0.06-0.82-0.1-1.27-0.1
		c-0.91,0-1.7,0.1-2.37,0.3s-1.22,0.48-1.66,0.84c-0.44,0.36-0.76,0.8-0.97,1.31c-0.21,0.51-0.31,1.09-0.31,1.72
		c0,0.64,0.1,1.21,0.31,1.72c0.21,0.51,0.53,0.95,0.97,1.31c0.44,0.36,0.99,0.64,1.66,0.84c0.67,0.2,1.46,0.29,2.37,0.29
		c0.45,0,0.88-0.03,1.28-0.1c0.4-0.06,0.78-0.15,1.13-0.26c0.35-0.11,0.68-0.24,0.98-0.38c0.3-0.15,0.57-0.3,0.81-0.46v1.03
		C-894.17,415.33-894.5,415.45-894.82,415.57z"/>
	<path d="M-881.9,415.94v-4.62h-8.51v4.62h-0.86v-9.5h0.86v4.09h8.51v-4.09h0.86v9.5H-881.9z"/>
	<path d="M-868.72,415.94l-8.25-8.36v8.36h-0.86v-9.5h0.95l8.25,8.39v-8.39h0.85v9.5H-868.72z"/>
	<path d="M-853.2,411.2c0,0.85-0.15,1.59-0.46,2.21c-0.31,0.62-0.73,1.13-1.27,1.53c-0.54,0.4-1.17,0.7-1.91,0.9
		c-0.73,0.19-1.52,0.29-2.37,0.29c-0.85,0-1.65-0.1-2.38-0.29c-0.74-0.19-1.38-0.49-1.92-0.9c-0.54-0.4-0.97-0.91-1.28-1.53
		c-0.31-0.62-0.46-1.36-0.46-2.21c0-0.57,0.07-1.08,0.21-1.54c0.14-0.46,0.34-0.88,0.6-1.24s0.57-0.68,0.94-0.95
		s0.77-0.49,1.22-0.67s0.93-0.31,1.45-0.39c0.52-0.08,1.06-0.13,1.62-0.13c0.85,0,1.64,0.1,2.37,0.29c0.73,0.19,1.37,0.49,1.91,0.9
		c0.54,0.4,0.96,0.91,1.27,1.53S-853.2,410.35-853.2,411.2z M-854.08,411.2c0-0.67-0.11-1.27-0.33-1.78
		c-0.22-0.52-0.54-0.95-0.97-1.3c-0.43-0.35-0.96-0.62-1.6-0.8c-0.64-0.18-1.38-0.27-2.22-0.27s-1.59,0.09-2.23,0.28
		c-0.64,0.18-1.18,0.45-1.61,0.81s-0.76,0.79-0.98,1.31c-0.22,0.52-0.33,1.11-0.33,1.77c0,0.67,0.11,1.27,0.33,1.78
		c0.22,0.52,0.55,0.95,0.98,1.3s0.97,0.62,1.61,0.8c0.64,0.18,1.39,0.27,2.23,0.27s1.58-0.09,2.22-0.27s1.17-0.45,1.6-0.8
		s0.75-0.79,0.97-1.3C-854.19,412.47-854.08,411.87-854.08,411.2z"/>
	<path d="M-850.66,415.94v-9.5h0.86v8.69h6.94v0.81H-850.66z"/>
	<path d="M-829.35,411.2c0,0.85-0.15,1.59-0.46,2.21c-0.31,0.62-0.73,1.13-1.27,1.53c-0.54,0.4-1.17,0.7-1.91,0.9
		c-0.73,0.19-1.52,0.29-2.37,0.29c-0.85,0-1.65-0.1-2.38-0.29c-0.74-0.19-1.38-0.49-1.92-0.9c-0.54-0.4-0.97-0.91-1.28-1.53
		c-0.31-0.62-0.46-1.36-0.46-2.21c0-0.57,0.07-1.08,0.21-1.54c0.14-0.46,0.34-0.88,0.6-1.24s0.57-0.68,0.94-0.95
		s0.77-0.49,1.22-0.67s0.93-0.31,1.45-0.39c0.52-0.08,1.06-0.13,1.62-0.13c0.85,0,1.64,0.1,2.37,0.29c0.73,0.19,1.37,0.49,1.91,0.9
		c0.54,0.4,0.96,0.91,1.27,1.53S-829.35,410.35-829.35,411.2z M-830.23,411.2c0-0.67-0.11-1.27-0.33-1.78
		c-0.22-0.52-0.54-0.95-0.97-1.3c-0.43-0.35-0.96-0.62-1.6-0.8c-0.64-0.18-1.38-0.27-2.22-0.27s-1.59,0.09-2.23,0.28
		c-0.64,0.18-1.18,0.45-1.61,0.81s-0.76,0.79-0.98,1.31c-0.22,0.52-0.33,1.11-0.33,1.77c0,0.67,0.11,1.27,0.33,1.78
		c0.22,0.52,0.55,0.95,0.98,1.3s0.97,0.62,1.61,0.8c0.64,0.18,1.39,0.27,2.23,0.27s1.58-0.09,2.22-0.27s1.17-0.45,1.6-0.8
		s0.75-0.79,0.97-1.3C-830.34,412.47-830.23,411.87-830.23,411.2z"/>
	<path d="M-821.22,406.27c0.44,0,0.85,0.02,1.22,0.07c0.38,0.04,0.74,0.11,1.08,0.19s0.68,0.18,1.01,0.29
		c0.33,0.11,0.66,0.24,0.99,0.38v1.05c-0.26-0.17-0.54-0.32-0.84-0.47c-0.3-0.15-0.62-0.28-0.96-0.39c-0.34-0.11-0.71-0.2-1.11-0.26
		c-0.39-0.06-0.82-0.1-1.27-0.1c-0.92,0-1.73,0.1-2.41,0.29c-0.69,0.19-1.26,0.47-1.72,0.83c-0.46,0.36-0.8,0.8-1.03,1.31
		c-0.23,0.52-0.34,1.1-0.34,1.74c0,0.6,0.11,1.16,0.34,1.67c0.22,0.51,0.56,0.95,1.02,1.32s1.02,0.66,1.71,0.86s1.48,0.31,2.4,0.31
		c0.36,0,0.72-0.01,1.07-0.04s0.69-0.06,1-0.11c0.31-0.04,0.6-0.09,0.86-0.15c0.26-0.05,0.48-0.11,0.66-0.16v-2.88h-3.86v-0.81h4.73
		v4.17c-0.34,0.12-0.69,0.23-1.03,0.32c-0.35,0.09-0.71,0.17-1.08,0.23c-0.37,0.06-0.76,0.11-1.15,0.14
		c-0.4,0.03-0.82,0.05-1.25,0.05c-0.89,0-1.72-0.1-2.49-0.3c-0.77-0.2-1.43-0.5-1.99-0.91c-0.56-0.41-1-0.92-1.32-1.54
		c-0.32-0.62-0.48-1.34-0.48-2.18c0-0.56,0.07-1.07,0.22-1.52s0.36-0.87,0.63-1.24s0.59-0.69,0.97-0.96c0.38-0.27,0.8-0.5,1.26-0.67
		c0.46-0.18,0.96-0.31,1.5-0.4C-822.36,406.32-821.8,406.27-821.22,406.27z"/>
	<path d="M-809.97,411.92v4.02h-0.86v-4.02l-4.46-5.47h1.03l3.86,4.76l3.85-4.76h1.04L-809.97,411.92z"/>
	<path d="M-788.83,409.36c0,0.48-0.08,0.89-0.23,1.26c-0.15,0.36-0.4,0.67-0.73,0.92c-0.33,0.25-0.76,0.44-1.28,0.56
		s-1.15,0.19-1.89,0.19h-4.26v3.65h-0.86v-9.5h5.13c0.74,0,1.37,0.06,1.89,0.19c0.52,0.13,0.95,0.31,1.28,0.56
		c0.33,0.24,0.57,0.55,0.73,0.91C-788.9,408.47-788.83,408.89-788.83,409.36z M-789.71,409.36c0-0.45-0.08-0.82-0.23-1.09
		s-0.38-0.49-0.69-0.64c-0.31-0.15-0.71-0.25-1.18-0.3c-0.48-0.05-1.04-0.08-1.7-0.08h-3.71v4.23h3.71c0.25,0,0.52,0,0.81,0
		s0.57-0.01,0.85-0.04c0.28-0.03,0.55-0.08,0.81-0.16c0.26-0.08,0.48-0.19,0.68-0.35c0.2-0.16,0.35-0.36,0.47-0.62
		S-789.71,409.75-789.71,409.36z"/>
	<path d="M-781.67,415.94h-1.29l-4.74-9.5h0.97l4.44,8.9l4.44-8.9h0.96L-781.67,415.94z"/>
	<path d="M-771.07,407.23v8.71h-0.86v-8.71h-4.32v-0.79h9.5v0.79H-771.07z"/>
	<path d="M-765.77,415.94v-1.5h1.2v1.5H-765.77z"/>
	<path d="M-756.94,415.94v-9.5h0.86v8.69h6.94v0.81H-756.94z"/>
	<path d="M-745.01,407.23v8.71h-0.86v-8.71h-4.32v-0.79h9.5v0.79H-745.01z"/>
	<path d="M-728.45,411.19c0,0.61-0.06,1.15-0.19,1.62c-0.13,0.47-0.31,0.88-0.54,1.23c-0.23,0.35-0.51,0.65-0.84,0.89
		c-0.33,0.24-0.7,0.44-1.1,0.59c-0.4,0.15-0.84,0.25-1.31,0.32s-0.97,0.1-1.49,0.1h-4.9v-9.5h4.89c0.78,0,1.5,0.08,2.17,0.23
		c0.67,0.15,1.25,0.41,1.74,0.78c0.49,0.37,0.88,0.85,1.15,1.46C-728.59,409.52-728.45,410.28-728.45,411.19z M-729.34,411.19
		c0-0.52-0.05-0.97-0.15-1.37c-0.1-0.4-0.25-0.74-0.44-1.03c-0.19-0.29-0.42-0.54-0.69-0.74c-0.27-0.2-0.58-0.36-0.92-0.48
		s-0.71-0.21-1.11-0.26c-0.4-0.05-0.83-0.08-1.28-0.08h-4.03v7.92h4.03c0.68,0,1.3-0.06,1.86-0.18c0.56-0.12,1.05-0.33,1.45-0.64
		c0.4-0.3,0.72-0.71,0.94-1.22S-729.34,411.97-729.34,411.19z"/>
	<path d="M-726.83,415.94v-1.5h1.2v1.5H-726.83z"/>
	<path d="M-842.8,422.56c-0.08-0.04-0.17-0.08-0.27-0.12c-0.1-0.04-0.21-0.08-0.34-0.11c-0.13-0.03-0.27-0.06-0.44-0.08
		c-0.16-0.02-0.34-0.03-0.54-0.03c-0.24,0-0.45,0.01-0.64,0.04c-0.19,0.03-0.34,0.07-0.47,0.13s-0.23,0.13-0.3,0.22
		s-0.1,0.19-0.1,0.32c0,0.1,0.03,0.19,0.1,0.27s0.15,0.14,0.26,0.2c0.11,0.06,0.24,0.11,0.38,0.16c0.15,0.05,0.3,0.09,0.47,0.14
		c0.16,0.04,0.33,0.08,0.51,0.13c0.17,0.04,0.34,0.09,0.51,0.14c0.16,0.05,0.32,0.11,0.47,0.17c0.15,0.06,0.27,0.13,0.38,0.22
		c0.11,0.08,0.2,0.18,0.26,0.28c0.06,0.11,0.1,0.23,0.1,0.37c0,0.15-0.03,0.28-0.09,0.4c-0.06,0.11-0.13,0.21-0.23,0.29
		c-0.1,0.08-0.21,0.15-0.34,0.2s-0.27,0.1-0.42,0.13s-0.3,0.05-0.46,0.07s-0.31,0.02-0.47,0.02c-0.35,0-0.67-0.03-0.96-0.08
		s-0.56-0.12-0.82-0.21v-0.45c0.27,0.16,0.55,0.27,0.85,0.33c0.3,0.06,0.61,0.09,0.94,0.09c0.23,0,0.45-0.01,0.64-0.04
		c0.2-0.03,0.37-0.07,0.51-0.13c0.14-0.06,0.25-0.14,0.33-0.23c0.08-0.1,0.12-0.21,0.12-0.35c0-0.11-0.03-0.21-0.1-0.29
		c-0.06-0.08-0.15-0.16-0.26-0.22c-0.11-0.06-0.24-0.12-0.38-0.17c-0.15-0.05-0.3-0.09-0.46-0.14c-0.16-0.04-0.33-0.08-0.51-0.12
		c-0.17-0.04-0.34-0.08-0.51-0.13s-0.32-0.1-0.46-0.16s-0.27-0.13-0.38-0.21c-0.11-0.08-0.2-0.17-0.26-0.28
		c-0.06-0.1-0.1-0.23-0.1-0.36c0-0.14,0.03-0.26,0.08-0.36c0.05-0.1,0.12-0.2,0.21-0.27c0.09-0.08,0.19-0.14,0.31-0.19
		c0.12-0.05,0.25-0.09,0.38-0.12c0.14-0.03,0.28-0.05,0.43-0.07c0.15-0.01,0.29-0.02,0.44-0.02c0.16,0,0.31,0.01,0.45,0.02
		c0.14,0.01,0.28,0.03,0.41,0.05c0.13,0.02,0.26,0.05,0.38,0.08c0.12,0.03,0.25,0.06,0.38,0.09V422.56z"/>
	<path d="M-841.32,426.01v-4.05h0.37v4.05H-841.32z"/>
	<path d="M-835.69,426.01l-3.52-3.57v3.57h-0.37v-4.05h0.41l3.52,3.58v-3.58h0.36v4.05H-835.69z"/>
	<path d="M-830.19,425.85c-0.14,0.05-0.28,0.09-0.43,0.13c-0.15,0.04-0.31,0.06-0.47,0.08c-0.17,0.02-0.34,0.03-0.54,0.03
		c-0.24,0-0.47-0.02-0.69-0.06c-0.22-0.04-0.43-0.1-0.62-0.18c-0.19-0.08-0.36-0.18-0.52-0.29s-0.29-0.25-0.4-0.41
		c-0.11-0.16-0.2-0.33-0.26-0.52c-0.06-0.19-0.09-0.41-0.09-0.64s0.03-0.45,0.09-0.64c0.06-0.19,0.15-0.37,0.26-0.52
		s0.24-0.29,0.4-0.41c0.16-0.12,0.33-0.21,0.52-0.29c0.19-0.08,0.4-0.14,0.62-0.18c0.22-0.04,0.45-0.06,0.69-0.06
		c0.19,0,0.37,0.01,0.54,0.03c0.17,0.02,0.32,0.05,0.47,0.08c0.15,0.04,0.29,0.08,0.43,0.12c0.14,0.05,0.28,0.1,0.42,0.16v0.44
		c-0.11-0.07-0.23-0.14-0.36-0.2s-0.27-0.12-0.41-0.17c-0.15-0.05-0.31-0.08-0.48-0.11c-0.17-0.03-0.35-0.04-0.54-0.04
		c-0.39,0-0.73,0.04-1.01,0.13c-0.29,0.08-0.52,0.2-0.71,0.36c-0.19,0.15-0.32,0.34-0.41,0.56c-0.09,0.22-0.13,0.46-0.13,0.74
		c0,0.27,0.04,0.52,0.13,0.73c0.09,0.22,0.23,0.4,0.41,0.56c0.19,0.15,0.42,0.27,0.71,0.36c0.29,0.08,0.62,0.13,1.01,0.13
		c0.19,0,0.38-0.01,0.55-0.04c0.17-0.03,0.33-0.06,0.48-0.11c0.15-0.05,0.29-0.1,0.42-0.16c0.13-0.06,0.24-0.13,0.35-0.2v0.44
		C-829.91,425.75-830.05,425.8-830.19,425.85z"/>
	<path d="M-828.68,426.01v-4.05h3.38v0.35h-2.98v1.4h2.83v0.34h-2.83v1.63h3.02v0.35H-828.68z"/>
	<path d="M-822.29,426.01v-0.25c0.51-0.29,0.97-0.55,1.38-0.79c0.41-0.24,0.77-0.46,1.06-0.67c0.29-0.21,0.51-0.41,0.67-0.6
		c0.15-0.19,0.23-0.38,0.22-0.56c-0.01-0.14-0.04-0.27-0.12-0.38c-0.07-0.11-0.18-0.21-0.31-0.29c-0.14-0.08-0.3-0.15-0.5-0.19
		c-0.2-0.05-0.43-0.07-0.69-0.07c-0.16,0-0.31,0.01-0.46,0.03s-0.29,0.04-0.42,0.08c-0.14,0.04-0.27,0.08-0.4,0.14
		c-0.13,0.06-0.26,0.12-0.38,0.19v-0.4c0.14-0.06,0.27-0.1,0.4-0.15s0.26-0.08,0.39-0.11c0.13-0.03,0.27-0.06,0.41-0.07
		c0.14-0.02,0.29-0.02,0.45-0.02c0.29,0,0.56,0.03,0.8,0.09c0.25,0.06,0.46,0.14,0.64,0.25c0.18,0.11,0.32,0.24,0.42,0.4
		c0.1,0.16,0.15,0.34,0.15,0.55c0,0.19-0.06,0.37-0.19,0.56c-0.13,0.19-0.31,0.38-0.56,0.58c-0.24,0.2-0.55,0.41-0.9,0.64
		c-0.36,0.22-0.77,0.46-1.23,0.73h2.97v0.34H-822.29z"/>
	<path d="M-813.47,423.99c0,0.23-0.03,0.44-0.08,0.63c-0.06,0.19-0.13,0.37-0.23,0.52c-0.1,0.16-0.22,0.29-0.35,0.41
		c-0.14,0.12-0.28,0.22-0.44,0.3s-0.33,0.14-0.5,0.18c-0.18,0.04-0.35,0.06-0.54,0.06s-0.36-0.02-0.54-0.06
		c-0.18-0.04-0.34-0.1-0.5-0.18s-0.31-0.18-0.44-0.3c-0.14-0.12-0.25-0.26-0.35-0.41c-0.1-0.16-0.18-0.33-0.23-0.52
		c-0.06-0.19-0.08-0.4-0.08-0.63s0.03-0.44,0.08-0.63c0.06-0.19,0.13-0.37,0.23-0.52c0.1-0.16,0.22-0.29,0.35-0.41
		c0.14-0.12,0.28-0.22,0.44-0.3s0.33-0.14,0.5-0.18c0.18-0.04,0.35-0.06,0.54-0.06s0.36,0.02,0.54,0.06c0.18,0.04,0.34,0.1,0.5,0.18
		s0.31,0.18,0.44,0.3c0.14,0.12,0.25,0.26,0.35,0.41c0.1,0.16,0.18,0.33,0.23,0.52C-813.5,423.55-813.47,423.76-813.47,423.99z
		 M-813.84,423.99c0-0.2-0.02-0.38-0.07-0.55c-0.05-0.17-0.11-0.32-0.2-0.45s-0.18-0.25-0.3-0.34c-0.11-0.1-0.24-0.18-0.37-0.24
		c-0.13-0.06-0.27-0.11-0.41-0.14c-0.14-0.03-0.29-0.05-0.43-0.05c-0.22,0-0.43,0.04-0.64,0.11s-0.4,0.18-0.57,0.33
		c-0.17,0.15-0.31,0.33-0.41,0.56s-0.16,0.49-0.16,0.79s0.05,0.57,0.16,0.79s0.24,0.41,0.41,0.56c0.17,0.15,0.36,0.26,0.57,0.33
		s0.43,0.11,0.64,0.11c0.14,0,0.29-0.02,0.43-0.05c0.14-0.03,0.28-0.08,0.41-0.15c0.13-0.06,0.25-0.15,0.37-0.24
		c0.11-0.1,0.21-0.21,0.3-0.35s0.15-0.28,0.2-0.45S-813.84,424.19-813.84,423.99z"/>
	<path d="M-812.86,426.01v-0.25c0.51-0.29,0.97-0.55,1.38-0.79c0.41-0.24,0.77-0.46,1.06-0.67c0.29-0.21,0.51-0.41,0.67-0.6
		c0.15-0.19,0.23-0.38,0.22-0.56c-0.01-0.14-0.04-0.27-0.12-0.38c-0.07-0.11-0.18-0.21-0.31-0.29c-0.14-0.08-0.3-0.15-0.5-0.19
		c-0.2-0.05-0.43-0.07-0.69-0.07c-0.16,0-0.31,0.01-0.46,0.03s-0.29,0.04-0.42,0.08c-0.14,0.04-0.27,0.08-0.4,0.14
		c-0.13,0.06-0.26,0.12-0.38,0.19v-0.4c0.14-0.06,0.27-0.1,0.4-0.15s0.26-0.08,0.39-0.11c0.13-0.03,0.27-0.06,0.41-0.07
		c0.14-0.02,0.29-0.02,0.45-0.02c0.29,0,0.56,0.03,0.8,0.09c0.25,0.06,0.46,0.14,0.64,0.25c0.18,0.11,0.32,0.24,0.42,0.4
		c0.1,0.16,0.15,0.34,0.15,0.55c0,0.19-0.06,0.37-0.19,0.56c-0.13,0.19-0.31,0.38-0.56,0.58c-0.24,0.2-0.55,0.41-0.9,0.64
		c-0.36,0.22-0.77,0.46-1.23,0.73h2.97v0.34H-812.86z"/>
	<path d="M-805.28,424.97v1.04h-0.36v-1.04h-2.88v-0.32l2.62-2.69h0.62v2.68h1.04v0.34H-805.28z M-805.64,422.17l-2.4,2.46h2.4
		V422.17z"/>
</g>
<g>
</g>
<g>
</g>
<g>
</g>
<g>
</g>
<g>
</g>
<g>
</g>
</svg>
